<svg width="151" height="151" viewBox="0 0 151 151" fill="none" xmlns="http://www.w3.org/2000/svg">
<path d="M54 11C63.9411 11 72 19.0589 72 29V47C72 60.8071 60.8071 72 47 72H29C19.0589 72 11 63.9411 11 54V18C11 14.134 14.134 11 18 11H54Z" fill="white"/>
<path d="M11 98C11 88.0589 19.0589 80 29 80L47 80C60.8071 80 72 91.1929 72 105L72 123C72 132.941 63.9411 141 54 141L18 141C14.134 141 11 137.866 11 134L11 98Z" fill="white"/>
<path d="M98 11C88.0589 11 80 19.0589 80 29V47C80 60.8071 91.1929 72 105 72H123C132.941 72 141 63.9411 141 54V18C141 14.134 137.866 11 134 11H98Z" fill="white"/>
<path d="M141 98C141 88.0589 132.941 80 123 80L105 80C91.1929 80 80 91.1929 80 105L80 123C80 132.941 88.0589 141 98 141L134 141C137.866 141 141 137.866 141 134L141 98Z" fill="white"/>
</svg>
